#!OML:ASF X:\für Bonn\!DataBase\2005_08_12_Daniel\c3d\Daniel.ASF
:FULLY-SPECIFIED
:DEGREES
33
root 5.20921 18.0256 0.174699 -67.8008 86.2813 -438.862
lowerback 27.9851 -2.37334 2.18916
upperback 9.99299 -1.52946 0.254649
thorax -4.33433 -0.346332 -0.535813
lowerneck 1.67979 1.49685 -7.85809
upperneck -3.88839 1.78126 -0.132091
head -1.58367 1.02236 1.26121
rclavicle -1.70955e-014 -2.74323e-014
rhumerus -76.2099 -6.29507 -61.347
rradius 16.0928
rwrist 31.9514
rhand -19.7116 21.9494
rfingers 7.12502
rthumb 6.61825 -7.92717
lclavicle -1.70955e-014 -2.74323e-014
lhumerus -87.0388 12.4268 51.2001
lradius 28.0993
lwrist -31.3243
lhand -5.32431 -15.1166
lfingers 7.12502
lthumb 20.4818 13.8231
rfemur -36.4734 -1.91613 25.2355
rtibia 51.4137
rfoot -2.42289 -2.16071
rtoes -10.1565
lfemur -36.8431 1.04801 -15.5676
ltibia 54.5775
lfoot -10.2644 -6.2295
ltoes -10.2631
34
root 5.28696 17.9989 0.181474 -67.4207 86.3206 -438.802
lowerback 28.3111 -2.3079 2.03364
upperback 9.92251 -1.47603 0.253201
thorax -4.56086 -0.324568 -0.45915
lowerneck 0.966439 1.34691 -7.59171
upperneck -4.51092 1.64291 -0.310574
head -1.64617 0.973636 1.16248
rclavicle -5.1684e-015 1.07344e-014
rhumerus -75.7833 -6.91391 -61.5202
rradius 16.3175
rwrist 29.5292
rhand -20.3888 21.701
rfingers 7.12502
rthumb 5.96441 -8.19503
lclavicle -5.1684e-015 1.07344e-014
lhumerus -87.318 12.7516 52.5887
lradius 29.2438
lwrist -28.2597
lhand -5.10315 -15.3977
lfingers 7.12502
lthumb 20.6943 13.519
rfemur -36.9192 -1.83704 25.2949
rtibia 51.5039
rfoot -2.78942 -1.76129
rtoes -10.1462
lfemur -37.27 0.673492 -15.5434
ltibia 55.3548
lfoot -10.6862 -5.83348
ltoes -10.4677
35
root 5.36369 17.9629 0.187926 -67.1674 86.346 -438.853
lowerback 28.6842 -2.23483 1.88963
upperback 9.83125 -1.40893 0.274816
thorax -4.83202 -0.296719 -0.367565
lowerneck 0.196899 1.20214 -7.38572
upperneck -5.06647 1.51726 -0.426109
head -1.68033 0.92925 1.09407
rclavicle -3.61788e-014 -2.74323e-014
rhumerus -75.3101 -7.38921 -62.149
rradius 16.7417
rwrist 26.5023
rhand -20.9517 21.4692
rfingers 7.12502
rthumb 5.421 -8.4415
lclavicle -3.61788e-014 -2.74323e-014
lhumerus -87.4368 13.1806 53.8904
lradius 30.302
lwrist -25.1571
lhand -4.80363 -15.5485
lfingers 7.12502
lthumb 20.9821 13.3366
rfemur -37.385 -1.79862 25.3736
rtibia 51.6856
rfoot -3.2791 -1.38528
rtoes -10.0241
lfemur -37.7219 0.289851 -15.5025
ltibia 56.2259
lfoot -11.2593 -5.45698
ltoes -10.7881
36
root 5.44154 17.9199 0.195121 -66.9506 86.3669 -438.935
lowerback 28.9682 -2.17039 1.76327
upperback 9.7504 -1.35463 0.276469
thorax -5.05119 -0.274371 -0.3058
lowerneck -0.493272 1.06967 -7.11469
upperneck -5.6589 1.39827 -0.572919
head -1.74012 0.889077 1.00377
rclavicle 2.74323e-014 1.82882e-014
rhumerus -74.8356 -7.73548 -63.2546
rradius 17.4798
rwrist 22.9292
rhand -21.3827 21.2688
rfingers 7.12502
rthumb 5.00488 -8.65211
lclavicle 2.74323e-014 1.82882e-014
lhumerus -87.36 13.8249 54.7131
lradius 31.0673
lwrist -22.3723
lhand -4.41998 -15.6641
lfingers 7.12502
lthumb 21.3506 13.1797
rfemur -37.8954 -1.73596 25.4661
rtibia 51.9735
rfoot -3.8964 -1.09398
rtoes -9.97074
lfemur -38.1901 -0.0489283 -15.4644
ltibia 57.1854
lfoot -11.9409 -5.0844
ltoes -11.1014
37
root 5.52026 17.8638 0.20238 -66.4749 86.3897 -438.756
lowerback 29.1472 -2.09937 1.62845
upperback 9.67499 -1.29929 0.290565
thorax -5.21487 -0.252214 -0.227558
lowerneck -1.0082 0.949893 -6.93573
upperneck -6.33991 1.27906 -0.67609
head -1.86235 0.853244 0.942881
rclavicle 1.15295e-014 -7.95139e-016
rhumerus -74.392 -7.84915 -64.8221
rradius 18.6246
rwrist 18.7697
rhand -21.6432 21.1211
rfingers 7.12502
rthumb 4.7533 -8.80561
lclavicle 1.15295e-014 -7.95139e-016
lhumerus -87.093 14.5863 55.4159
lradius 31.6781
lwrist -19.5056
lhand -3.99513 -15.7061
lfingers 7.12502
lthumb 21.7586 13.0909
rfemur -38.4675 -1.65456 25.5502
rtibia 52.3328
rfoot -4.54186 -0.909607
rtoes -9.88076
lfemur -38.6686 -0.42734 -15.4369
ltibia 58.1992
lfoot -12.7443 -4.65838
ltoes -11.4598
38
root 5.59735 17.7895 0.207405 -65.1809 86.4 -437.72
lowerback 29.3186 -2.0082 1.5027
upperback 9.60231 -1.21894 0.284915
thorax -5.37255 -0.217539 -0.184865
lowerneck -1.53915 0.831703 -6.71532
upperneck -6.9833 1.164 -0.773345
head -1.97031 0.817488 0.876418
rclavicle -2.54444e-014 -7.95139e-015
rhumerus -73.9043 -7.9725 -66.4375
rradius 19.928
rwrist 14.606
rhand -21.8312 21.0098
rfingers 7.12502
rthumb 4.57176 -8.92084
lclavicle -2.54444e-014 -7.95139e-015
lhumerus -86.6668 15.3694 56.1181
lradius 32.3066
lwrist -16.4812
lhand -3.47264 -15.6615
lfingers 7.12502
lthumb 22.2603 13.0765
rfemur -39.0648 -1.54138 25.6185
rtibia 52.8396
rfoot -5.26352 -0.76696
rtoes -9.6715
lfemur -39.1563 -0.776767 -15.4407
ltibia 59.329
lfoot -13.7265 -4.16221
ltoes -11.8544
39
root 5.67509 17.7229 0.210407 -63.2934 86.3763 -436.093
lowerback 29.5263 -1.91054 1.39564
upperback 9.48582 -1.12897 0.282785
thorax -5.59684 -0.180056 -0.151795
lowerneck -2.12957 0.730384 -6.53508
upperneck -7.55832 1.07901 -0.835556
head -2.04835 0.795077 0.827439
rclavicle 2.38542e-015 2.14687e-014
rhumerus -73.2802 -8.19802 -67.7344
rradius 21.1079
rwrist 10.7543
rhand -21.9355 21.075
rfingers 7.12502
rthumb 4.47105 -8.85785
lclavicle 2.38542e-015 2.14687e-014
lhumerus -86.1236 16.2192 56.8286
lradius 32.9567
lwrist -13.3668
lhand -3.07303 -15.4662
lfingers 7.12502
lthumb 22.6439 13.2255
rfemur -39.6021 -1.38865 25.6984
rtibia 53.4203
rfoot -6.20692 -0.670548
rtoes -9.90319
lfemur -39.6074 -1.12427 -15.4487
ltibia 60.4844
lfoot -14.866 -3.57707
ltoes -12.2897
40
root 5.7523 17.6261 0.212873 -61.2667 86.3524 -434.321
lowerback 29.7171 -1.80241 1.33369
upperback 9.3478 -1.01869 0.259529
thorax -5.83894 -0.13331 -0.175518
lowerneck -2.66908 0.607676 -6.3014
upperneck -8.14609 0.957966 -0.937451
head -2.13844 0.754881 0.756683
rclavicle 3.97569e-016 8.34896e-015
rhumerus -72.5794 -8.61092 -68.704
rradius 22.193
rwrist 7.26228
rhand -21.9937 21.2402
rfingers 7.12502
rthumb 4.41481 -8.69377
lclavicle 3.97569e-016 8.34896e-015
lhumerus -85.5934 16.8347 57.8771
lradius 34
lwrist -9.97083
lhand -2.75217 -15.2283
lfingers 7.12502
lthumb 22.9518 13.4255
rfemur -40.2011 -1.23796 25.7599
rtibia 54.238
rfoot -7.34777 -0.511607
rtoes -10.4161
lfemur -40.1627 -1.49818 -15.4736
ltibia 61.8185
lfoot -16.1371 -2.9302
ltoes -12.8371
41
root 5.83106 17.5155 0.215121 -59.3098 86.3177 -432.595
lowerback 29.8385 -1.70358 1.32282
upperback 9.21471 -0.910249 0.219538
thorax -6.04461 -0.087359 -0.248075
lowerneck -2.85637 0.488437 -6.19571
upperneck -9.03275 0.818546 -0.903049
head -2.39363 0.716715 0.751411
rclavicle 1.66979e-014 2.50469e-014
rhumerus -71.9045 -9.0295 -69.6593
rradius 23.452
rwrist 3.88321
rhand -22.0245 21.2251
rfingers 7.12502
rthumb 4.38508 -8.7095
lclavicle 1.66979e-014 2.50469e-014
lhumerus -84.9038 17.4118 59.0698
lradius 35.2311
lwrist -6.51535
lhand -2.67409 -14.8559
lfingers 7.12502
lthumb 23.0267 13.7885
rfemur -40.7294 -1.06187 25.8157
rtibia 55.2167
rfoot -8.79713 -0.385527
rtoes -10.7558
lfemur -40.731 -1.83203 -15.5105
ltibia 63.2516
lfoot -17.5883 -2.28828
ltoes -13.0961
42
root 5.91258 17.393 0.216703 -57.2083 86.3055 -430.706
lowerback 29.9912 -1.59596 1.31756
upperback 9.0321 -0.794907 0.156451
thorax -6.32109 -0.0402124 -0.352133
lowerneck -2.87328 0.362393 -6.02058
upperneck -10.0407 0.65449 -0.90697
head -2.72216 0.669441 0.722359
rclavicle -3.97569e-015 -1.78906e-014
rhumerus -71.1872 -9.45267 -70.6795
rradius 24.847
rwrist 0.611818
rhand -22.155 20.9658
rfingers 7.12502
rthumb 4.25909 -8.9714
lclavicle -3.97569e-015 -1.78906e-014
lhumerus -84.0451 17.8537 60.4754
lradius 36.6937
lwrist -3.13608
lhand -2.87591 -14.3452
lfingers 7.12502
lthumb 22.8331 14.3233
rfemur -41.2244 -0.907442 25.8414
rtibia 56.3927
rfoot -10.5693 -0.19134
rtoes -11.1647
lfemur -41.2876 -2.18442 -15.6046
ltibia 64.7641
lfoot -19.188 -1.61121
ltoes -13.3703
43
root 5.99678 17.2624 0.217943 -54.8449 86.2569 -428.563
lowerback 30.2242 -1.47446 1.31102
upperback 8.78316 -0.664164 0.114779
thorax -6.70957 0.0108581 -0.437297
lowerneck -2.92288 0.239862 -5.85296
upperneck -11.0241 0.501196 -0.914288
head -3.04237 0.627563 0.69335
rclavicle 1.59028e-015 -2.38542e-015
rhumerus -70.4475 -9.73751 -71.8345
rradius 26.4833
rwrist -2.63876
rhand -22.3768 20.3296
rfingers 7.12502
rthumb 4.04494 -9.61171
lclavicle 1.59028e-015 -2.38542e-015
lhumerus -83.049 18.1924 62.1594
lradius 38.4659
lwrist 0.296614
lhand -3.31505 -13.6087
lfingers 7.12502
lthumb 22.4116 15.1112
rfemur -41.7156 -0.702719 25.872
rtibia 57.6846
rfoot -12.5118 0.00837067
rtoes -11.3826
lfemur -41.8119 -2.50993 -15.6893
ltibia 66.2836
lfoot -20.9763 -0.893481
ltoes -13.5123
44
root 6.08391 17.1261 0.219532 -52.6485 86.2259 -426.543
lowerback 30.537 -1.37609 1.2525
upperback 8.49557 -0.578075 0.075316
thorax -7.17988 0.0392802 -0.475356
lowerneck -2.96981 0.156709 -5.62963
upperneck -12.0043 0.399432 -0.96897
head -3.36816 0.610806 0.638028
rclavicle -9.14409e-015 1.27222e-014
rhumerus -69.6646 -9.98584 -72.9775
rradius 28.3026
rwrist -5.52475
rhand -22.7982 19.5428
rfingers 7.12502
rthumb 3.63793 -10.4059
lclavicle -9.14409e-015 1.27222e-014
lhumerus -81.8964 18.6433 63.7381
lradius 40.149
lwrist 3.37632
lhand -4.00586 -12.9734
lfingers 7.12502
lthumb 21.7483 15.8248
rfemur -42.1448 -0.559512 25.8905
rtibia 59.0802
rfoot -14.5453 0.22711
rtoes -11.7776
lfemur -42.2258 -2.80902 -15.8157
ltibia 67.7535
lfoot -22.8573 -0.232915
ltoes -13.6425
45
root 6.1755 16.9877 0.220183 -50.2349 86.1852 -424.326
lowerback 30.8329 -1.2732 1.15613
upperback 8.15317 -0.502945 0.0514376
thorax -7.7055 0.0598859 -0.471121
lowerneck -2.99364 0.0996231 -5.41992
upperneck -12.9451 0.334002 -1.01219
head -3.6914 0.610679 0.587434
rclavicle -1.59028e-014 -1.39149e-014
rhumerus -68.5855 -10.3775 -73.9277
rradius 29.9215
rwrist -7.65273
rhand -23.3879 18.7037
rfingers 7.12502
rthumb 3.06851 -11.254
lclavicle -1.59028e-014 -1.39149e-014
lhumerus -80.4824 19.243 65.0469
lradius 41.4095
lwrist 5.79354
lhand -4.79424 -12.6799
lfingers 7.12502
lthumb 20.9911 16.2042
rfemur -42.6082 -0.393454 25.8978
rtibia 60.5507
rfoot -16.5297 0.330241
rtoes -12.0627
lfemur -42.5967 -3.11397 -15.9508
ltibia 69.1422
lfoot -24.7715 0.447948
ltoes -13.4781
